<?xml version="1.0" standalone="no"?>
<!DOCTYPE svg PUBLIC "-//W3C//DTD SVG 20010904//EN"
 "http://www.w3.org/TR/2001/REC-SVG-20010904/DTD/svg10.dtd">
<svg version="1.0" xmlns="http://www.w3.org/2000/svg"
 width="640.000000pt" height="428.000000pt" viewBox="0 0 640.000000 428.000000"
 preserveAspectRatio="xMidYMid meet">

<g transform="translate(0.000000,428.000000) scale(0.100000,-0.100000)"
fill="#000000" stroke="none">
<path d="M1986 3893 c-1 -1 -19 -4 -41 -5 -45 -4 -54 -23 -47 -99 4 -44 6 -47
45 -59 22 -6 50 -14 61 -16 36 -8 250 -5 281 4 27 8 30 12 25 43 -2 19 -5 55
-5 82 l0 47 -55 2 c-73 3 -261 4 -264 1z m281 -38 c0 -8 -7 -15 -15 -15 -12 0
-12 3 -2 15 7 8 13 15 15 15 1 0 2 -7 2 -15z"/>
<path d="M5153 3767 c-24 -5 -43 -14 -43 -18 0 -5 -7 -9 -15 -9 -8 0 -15 -4
-15 -10 0 -5 11 -10 24 -10 14 0 37 -5 53 -11 46 -18 121 -22 192 -8 63 12 65
13 36 22 -16 6 -46 19 -65 30 -40 23 -106 29 -167 14z"/>
<path d="M2930 3741 c0 -6 5 -13 10 -16 6 -3 10 1 10 9 0 9 -4 16 -10 16 -5 0
-10 -4 -10 -9z"/>
<path d="M2900 3730 c0 -5 5 -10 10 -10 6 0 10 5 10 10 0 6 -4 10 -10 10 -5 0
-10 -4 -10 -10z"/>
<path d="M2860 3710 c-8 -5 -12 -12 -9 -15 4 -3 12 1 19 10 14 17 11 19 -10 5z"/>
<path d="M3880 3620 c0 -5 5 -10 11 -10 5 0 7 5 4 10 -3 6 -8 10 -11 10 -2 0
-4 -4 -4 -10z"/>
<path d="M3250 3469 c-19 -6 -41 -10 -47 -11 -7 -1 -13 -4 -13 -8 0 -3 -10 -6
-22 -7 -252 -8 -522 -111 -734 -280 -42 -34 -61 -42 -48 -21 5 7 3 8 -5 4 -7
-5 -10 -11 -6 -14 6 -7 -65 -82 -78 -82 -4 0 -5 5 -2 10 3 6 2 10 -4 10 -5 0
-15 -13 -22 -29 -8 -17 -18 -27 -26 -24 -7 3 -13 1 -13 -5 0 -6 5 -12 11 -14
5 -2 -1 -14 -15 -27 -17 -16 -26 -20 -26 -11 0 9 -10 5 -27 -11 -24 -20 -25
-21 -9 -2 10 12 16 27 14 34 -2 7 -19 -8 -38 -34 -36 -51 -44 -55 -58 -31 -8
15 -35 17 -233 15 -123 0 -240 -4 -259 -7 -80 -12 -78 -11 -90 -68 -16 -76
-25 -85 -95 -90 -33 -2 -85 -7 -115 -11 -48 -6 -57 -5 -74 14 -16 18 -17 24
-6 51 12 30 26 37 85 42 33 3 45 29 25 53 -10 12 -57 14 -288 9 -152 -3 -279
-7 -284 -10 -12 -7 -10 -102 2 -109 16 -10 11 -78 -11 -141 -11 -32 -21 -65
-21 -71 -1 -7 -6 -13 -12 -13 -6 0 -3 -7 6 -16 13 -13 14 -23 7 -43 -7 -18 -7
-27 1 -29 14 -5 -7 -32 -25 -32 -17 0 -27 -28 -13 -36 7 -4 6 -9 -3 -15 -9 -5
-9 -9 -3 -9 7 0 14 -9 17 -21 5 -20 5 -20 -15 -2 -21 18 -21 18 -9 -4 6 -13
17 -23 24 -24 7 0 -3 -7 -20 -15 -18 -8 -33 -17 -33 -20 0 -3 5 -2 10 1 15 10
12 -12 -5 -28 -13 -13 -13 -16 0 -21 8 -3 15 -10 15 -16 0 -6 -4 -9 -9 -5 -5
3 -12 1 -16 -5 -4 -6 9 -11 32 -11 27 -1 31 -3 13 -6 -23 -5 -23 -6 10 -19 31
-14 36 -13 47 2 12 16 13 16 19 0 4 -9 13 -15 20 -12 7 3 16 0 20 -6 4 -7 3
-8 -4 -4 -8 5 -12 -1 -12 -16 0 -18 -2 -20 -10 -8 -8 13 -10 12 -10 -2 0 -16
23 -24 53 -19 5 1 5 -3 2 -9 -4 -6 -13 -9 -21 -6 -8 3 -14 1 -14 -4 0 -6 -10
-10 -22 -10 -22 -1 -22 -1 4 -25 32 -28 36 -39 11 -31 -10 3 -25 1 -33 -5 -13
-9 -13 -10 2 -6 9 3 31 1 48 -6 25 -9 33 -9 39 2 5 8 11 9 15 3 7 -12 56 -13
56 -1 0 5 4 9 9 9 5 0 7 -10 3 -22 -5 -21 -4 -22 11 -9 15 12 17 11 17 -3 0
-9 -7 -16 -15 -16 -8 0 -15 -5 -15 -11 0 -6 9 -9 20 -6 17 4 20 2 15 -14 -5
-15 0 -20 24 -25 37 -8 43 -15 31 -34 -7 -12 -10 -12 -16 3 -8 23 -20 22 -20
-2 0 -27 30 -33 47 -10 8 12 25 19 44 18 25 -1 26 -2 9 -7 -29 -9 -23 -37 15
-71 33 -30 39 -46 19 -54 -7 -3 -4 -6 7 -7 19 -1 19 -1 -2 -19 -22 -19 -33
-48 -13 -36 6 3 7 -1 4 -9 -4 -10 -1 -16 9 -16 9 0 18 -4 21 -9 3 -5 0 -9 -7
-8 -39 1 -49 -3 -38 -17 6 -7 9 -21 5 -30 -4 -10 -1 -16 9 -16 12 0 27 -19 27
-36 0 -10 -39 -3 -44 9 -3 6 -4 3 -3 -8 2 -14 9 -19 24 -17 26 4 41 -16 19
-24 -24 -9 -19 -20 13 -34 16 -6 32 -18 35 -27 3 -8 10 -12 15 -9 11 7 36 -22
27 -31 -4 -4 -12 -1 -17 7 -8 11 -9 8 -5 -12 4 -16 1 -30 -6 -34 -7 -4 -8 -3
-4 4 4 7 2 12 -3 12 -6 0 -11 -3 -11 -7 0 -5 -11 -9 -25 -9 -14 -1 -25 2 -25
8 0 5 4 7 9 4 5 -3 11 5 13 19 5 26 -6 35 -15 13 -4 -10 -8 -9 -16 2 -5 8 -14
11 -18 6 -4 -5 -2 -11 5 -13 28 -10 9 -21 -33 -18 -25 1 -45 -1 -45 -6 0 -5 5
-9 10 -9 6 0 10 -6 10 -14 0 -8 5 -18 12 -22 7 -4 8 -3 4 4 -11 17 9 15 24 -3
10 -12 10 -15 0 -15 -7 0 -10 -7 -6 -15 7 -19 -43 -21 -64 -2 -9 8 -9 4 2 -14
9 -15 13 -31 8 -38 -6 -11 -9 -11 -13 0 -3 8 -6 5 -6 -8 -1 -12 4 -23 10 -25
18 -6 -11 -57 -30 -51 -13 4 -13 2 2 -7 29 -19 19 -27 -33 -26 -28 1 -50 -2
-50 -6 0 -7 -53 -17 -107 -20 -34 -2 -46 -17 -15 -20 9 0 22 -2 27 -3 6 -2 20
-3 33 -4 13 0 21 -5 18 -10 -6 -10 229 -19 714 -27 190 -3 373 -7 408 -10 70
-5 79 6 37 46 -14 13 -25 33 -25 45 0 12 -11 31 -25 43 -15 13 -25 33 -25 48
0 16 -11 37 -26 51 -20 19 -24 29 -19 53 5 23 2 31 -15 40 -16 9 -20 19 -18
50 1 26 -4 46 -16 59 -11 13 -15 27 -11 40 3 12 5 21 3 22 -2 0 -23 2 -48 5
-71 9 -162 56 -201 104 -19 23 -34 47 -34 53 -1 7 -4 19 -7 27 -25 66 -26 89
-3 155 13 36 31 78 40 93 18 28 85 92 96 92 4 0 14 19 22 43 11 32 15 99 16
257 2 283 -3 274 163 279 l68 2 0 -30 c0 -16 3 -31 8 -34 4 -2 1 -2 -5 -1 -7
2 -13 -5 -13 -15 0 -10 -7 -21 -15 -25 -8 -3 -15 -16 -15 -28 0 -13 -7 -36
-16 -53 -9 -16 -17 -51 -18 -78 -2 -32 -8 -51 -21 -61 -13 -9 -16 -20 -11 -39
3 -14 2 -28 -3 -31 -16 -10 -23 -59 -9 -68 11 -6 11 -10 0 -16 -8 -5 -10 -16
-6 -27 6 -14 4 -16 -6 -10 -10 6 -11 0 -6 -30 4 -22 3 -49 -4 -64 -7 -18 -8
-35 -1 -52 9 -21 10 -22 12 -4 1 11 1 25 0 32 -1 6 3 14 9 18 6 4 9 -26 6 -87
-3 -110 9 -267 29 -350 11 -49 11 -57 0 -48 -11 9 -12 7 -8 -9 3 -12 11 -21
19 -21 14 0 31 -46 21 -57 -3 -3 -9 6 -13 21 -3 14 -10 26 -15 26 -5 0 -3 -17
5 -37 8 -21 17 -51 20 -66 4 -15 11 -25 16 -22 5 3 7 0 4 -8 -3 -8 0 -18 7
-23 8 -5 10 -3 4 6 -6 9 -4 11 4 5 8 -4 10 -17 7 -34 -5 -18 -4 -22 3 -12 8
12 11 9 16 -12 4 -15 11 -27 16 -27 5 0 9 -10 9 -22 0 -48 140 -261 264 -401
66 -75 205 -191 306 -257 75 -48 240 -129 318 -156 46 -16 54 -16 64 -4 8 13
9 12 5 -2 -5 -14 9 -20 81 -37 48 -11 119 -25 157 -32 102 -16 333 -14 445 5
117 20 306 81 425 136 11 5 31 14 45 20 14 6 37 18 52 28 15 9 55 35 89 56
125 79 202 143 284 237 43 48 95 94 95 83 -1 -15 -149 -166 -224 -229 -119
-99 -285 -199 -398 -240 -222 -81 -294 -99 -465 -116 -330 -31 -685 56 -971
237 -93 59 -237 180 -323 273 -45 47 -71 70 -58 51 41 -63 233 -244 324 -306
50 -34 129 -83 177 -109 80 -42 87 -49 77 -67 -6 -11 -13 -17 -16 -14 -3 3
-21 -1 -41 -10 -19 -8 -37 -12 -40 -10 -2 3 -11 -2 -19 -10 -8 -8 -20 -12 -26
-8 -7 3 -5 0 3 -8 14 -12 14 -15 -2 -30 -10 -10 -21 -19 -25 -19 -22 -4 -33
-13 -33 -25 0 -8 -9 -14 -19 -14 -11 0 -23 -5 -26 -10 -3 -6 -2 -10 4 -10 6 0
8 -7 5 -15 -4 -9 -1 -15 7 -15 15 0 266 -11 286 -12 31 -3 -11 -16 -64 -20 -7
-1 -10 -5 -8 -9 7 -10 88 1 96 13 3 5 64 8 135 7 169 -2 183 -1 164 11 -36 23
24 9 66 -16 24 -14 44 -21 44 -15 0 6 -4 11 -10 11 -5 0 -10 5 -10 12 0 6 10
3 22 -8 12 -10 18 -13 14 -6 -4 6 -2 12 3 12 6 0 11 -6 11 -12 0 -10 2 -10 8
0 5 8 25 11 54 10 25 -2 44 -7 41 -11 -3 -5 24 -5 59 -1 69 9 132 10 313 5
111 -3 178 0 215 11 8 3 37 8 64 13 27 4 43 11 36 15 -9 5 -6 12 10 23 20 14
12 36 -9 22 -5 -3 -12 -1 -16 5 -3 6 4 10 17 10 22 1 22 1 4 15 -11 8 -29 15
-40 15 -15 0 -17 3 -8 8 7 5 10 16 6 25 -3 9 -9 15 -14 12 -4 -2 -21 6 -39 19
l-31 23 112 56 c237 116 412 253 541 422 33 44 51 71 39 61 -33 -28 -27 -12
16 47 89 121 155 250 206 397 62 183 86 324 87 512 0 65 4 118 8 118 12 0 -5
157 -26 245 -4 17 -2 18 7 5 9 -12 10 -7 5 23 -4 27 -2 37 7 38 7 0 4 4 -7 9
-11 5 -14 9 -7 9 10 1 9 5 -3 17 -10 11 -14 25 -11 40 3 12 1 35 -5 51 -6 15
-10 28 -9 28 1 0 -3 12 -9 27 -6 17 -7 29 -1 33 6 4 10 1 10 -5 0 -6 7 -18 15
-26 8 -9 15 -12 15 -7 0 5 -5 14 -12 21 -6 6 -8 15 -4 19 4 4 11 1 15 -6 7
-11 9 -11 14 0 3 8 4 -4 2 -26 -1 -22 -5 -47 -9 -55 -9 -24 10 -43 43 -42 30
1 38 -14 16 -30 -6 -5 -3 -8 7 -8 9 0 19 4 23 10 3 5 12 7 21 3 8 -3 22 3 30
13 12 15 15 16 11 3 -4 -12 3 -18 25 -23 31 -6 54 3 31 11 -27 10 -11 22 26
20 33 -1 37 -4 33 -21 -3 -11 -7 -15 -9 -9 -3 7 -11 9 -19 6 -13 -5 -12 -9 3
-26 13 -14 15 -21 6 -24 -7 -3 -13 -9 -13 -14 0 -6 4 -8 8 -5 4 2 9 -4 9 -15
2 -20 -12 -26 -22 -9 -4 6 -15 8 -26 5 -13 -4 -19 -2 -17 6 2 8 -11 13 -36 14
-22 1 -42 7 -44 14 -3 9 -8 9 -20 -1 -12 -10 -16 -10 -19 0 -3 6 -9 12 -14 12
-5 0 -4 -9 3 -19 9 -15 16 -17 29 -10 11 5 20 5 24 0 5 -9 -32 -27 -46 -23 -4
1 -9 -14 -11 -33 -3 -28 -1 -35 13 -35 10 0 21 5 24 10 3 6 11 10 16 10 6 0 7
-4 4 -10 -3 -5 3 -10 14 -10 12 0 21 5 21 11 0 6 6 9 13 6 6 -2 11 -10 9 -16
-1 -6 2 -11 8 -11 5 0 7 13 4 29 -5 25 -3 29 22 34 27 5 64 -10 64 -26 0 -5
-10 -7 -23 -3 -23 5 -26 -2 -18 -44 1 -3 6 2 11 10 8 12 10 12 11 -5 l0 -20 9
20 c5 11 9 15 9 8 1 -6 10 -9 21 -6 15 4 19 11 15 24 -5 16 -1 19 27 20 30 0
31 1 11 9 -13 5 -23 18 -23 29 0 11 -5 23 -10 26 -6 4 -7 11 -4 17 4 6 0 15
-7 20 -10 7 -8 7 8 3 13 -3 28 -3 35 1 9 6 5 10 -12 15 l-25 7 26 1 c17 1 28
8 32 20 4 15 1 18 -12 13 -14 -5 -14 -3 -3 11 10 11 23 14 43 10 24 -4 29 -2
28 13 0 11 -3 14 -6 6 -2 -6 -9 -9 -14 -6 -13 8 9 34 27 34 8 0 13 3 12 8 -2
12 20 59 31 67 6 3 11 1 11 -5 0 -7 12 -10 28 -9 15 2 36 -2 47 -9 17 -10 18
-11 3 -12 -10 0 -18 -5 -18 -11 0 -6 -9 -9 -20 -6 -22 6 -25 -1 -9 -23 8 -11
12 -12 16 -2 2 6 14 11 26 11 19 -1 20 -2 3 -6 -15 -4 -16 -7 -5 -15 11 -8 10
-9 -3 -4 -10 3 -20 1 -23 -4 -4 -6 -1 -10 4 -10 6 0 11 -5 11 -11 0 -5 -4 -8
-9 -4 -5 3 -13 1 -16 -5 -5 -8 -15 -6 -32 5 -23 16 -25 16 -21 -2 2 -10 10
-17 16 -15 7 1 12 -6 13 -15 0 -12 2 -13 6 -5 4 10 8 10 19 1 8 -6 14 -17 14
-23 0 -6 -5 -4 -10 4 -8 13 -10 13 -10 -1 0 -9 7 -20 16 -23 21 -8 23 -6 27
24 2 13 12 27 23 31 17 7 17 8 -3 8 -24 1 -33 21 -10 21 8 0 13 10 13 23 -1
16 4 22 19 20 19 -1 19 -1 2 12 -10 7 -13 15 -7 17 5 1 12 13 14 25 3 12 12
33 21 47 9 13 17 41 18 60 1 20 5 36 8 36 4 0 13 26 22 58 29 107 29 107 4
110 -12 2 -204 5 -427 6 -223 2 -415 6 -426 9 -30 7 -50 -35 -28 -58 9 -8 22
-15 30 -15 8 0 20 -11 26 -25 9 -19 19 -25 44 -25 18 0 36 -5 39 -10 4 -7 12
-7 25 0 12 6 21 7 25 0 3 -5 12 -7 20 -3 18 6 75 -15 75 -29 0 -6 -7 -8 -14
-5 -10 4 -13 1 -10 -7 8 -20 -44 -36 -109 -34 -36 2 -60 -1 -65 -9 -10 -15
-48 -9 -44 7 2 7 -3 10 -10 7 -20 -7 -39 18 -25 32 9 9 8 10 -7 5 -15 -6 -18
-4 -13 8 3 9 -1 24 -9 35 -14 17 -14 16 -4 -7 9 -21 9 -22 -2 -6 -190 276
-416 466 -703 588 -38 16 -81 30 -95 30 -14 0 -30 4 -36 9 -17 14 -135 48
-189 54 -27 4 -53 9 -58 12 -16 10 -321 11 -357 2z m346 -81 c2 -2 -76 -3
-174 -2 -213 3 -318 -12 -522 -73 -8 -2 -7 1 4 8 47 30 276 74 426 82 50 2
260 -10 266 -15z m84 -18 c20 -6 21 -8 5 -8 -11 0 -33 4 -50 8 -27 7 -27 8 -5
8 14 0 36 -4 50 -8z m-90 -16 c52 -8 145 -30 207 -49 111 -35 319 -132 342
-159 7 -8 -34 10 -91 39 -225 115 -426 165 -668 165 -187 0 -410 -44 -557
-111 -23 -10 -45 -19 -48 -19 -12 0 -213 -125 -267 -167 -70 -53 -189 -170
-243 -238 -51 -66 -60 -74 -47 -49 6 12 8 24 5 28 -3 3 1 6 9 6 15 0 33 26 30
43 -4 16 198 206 283 266 164 115 392 209 585 241 41 6 82 13 90 15 41 9 286
1 370 -11z m147 0 c-3 -3 -12 -4 -19 -1 -8 3 -5 6 6 6 11 1 17 -2 13 -5z m122
-33 c43 -16 87 -34 97 -41 18 -11 18 -11 -1 -4 -11 4 -63 22 -115 40 -52 19
-87 34 -78 34 10 0 53 -13 97 -29z m-1009 -26 c-14 -8 -29 -14 -35 -14 -5 0 1
6 15 14 14 8 30 14 35 14 6 0 -1 -6 -15 -14z m-60 -25 c-8 -5 -19 -10 -25 -10
-5 0 -3 5 5 10 8 5 20 10 25 10 6 0 3 -5 -5 -10z m717 -36 c-6 -61 -33 -79
-71 -51 -15 11 -17 18 -8 33 11 18 11 18 12 -4 0 -18 5 -23 23 -20 18 2 23 10
25 46 2 23 8 42 14 42 7 0 9 -17 5 -46z m-291 12 c3 -13 4 -36 2 -52 -2 -23
-9 -30 -35 -35 -32 -6 -32 -6 -43 44 -12 57 -5 67 42 67 21 0 29 -6 34 -24z
m383 -21 c-6 -19 -7 -40 -4 -45 12 -19 35 -10 41 18 9 42 20 67 26 56 2 -5 1
-28 -4 -51 -10 -47 -34 -61 -68 -43 -19 10 -21 17 -15 53 8 49 13 59 25 52 5
-3 4 -21 -1 -40z m451 15 c33 -17 60 -33 60 -35 0 -5 -119 52 -129 61 -13 12
16 1 69 -26z m-1300 15 c0 -2 -14 -12 -31 -21 -17 -8 -28 -11 -24 -4 4 6 17
15 29 20 27 11 26 11 26 5z m598 -44 c5 -30 -10 -45 -37 -36 -21 6 -29 43 -14
59 15 15 48 1 51 -23z m438 9 c23 -9 26 -14 19 -43 -3 -17 -8 -39 -9 -46 -2
-8 -9 -17 -16 -19 -9 -3 -11 2 -6 21 4 18 1 27 -10 31 -21 8 -21 8 -27 -14 -8
-32 -28 -24 -21 8 18 75 24 79 70 62z m-1121 -10 c-3 -5 -12 -10 -18 -10 -7 0
-6 4 3 10 19 12 23 12 15 0z m-35 -24 c0 -2 -7 -7 -16 -10 -8 -3 -12 -2 -9 4
6 10 25 14 25 6z m1563 -25 c15 -8 27 -18 27 -23 0 -12 -3 -11 -41 18 -35 27
-33 28 14 5z m-855 -23 c13 -10 14 -10 8 0 -5 8 1 12 19 12 17 0 24 -4 19 -12
-5 -8 0 -9 14 -6 23 6 31 -7 10 -15 -7 -3 2 -3 20 0 18 3 51 1 75 -5 23 -6 76
-18 117 -27 83 -18 161 -45 220 -75 53 -27 51 -34 -2 -10 -24 11 -53 20 -65
20 -13 0 -23 3 -23 8 0 12 -100 36 -152 36 -27 1 -48 4 -48 7 0 3 -12 4 -27 1
-23 -4 -24 -6 -10 -17 24 -17 21 -35 -5 -35 l-21 0 23 -25 c13 -14 19 -25 14
-25 -5 0 4 -7 20 -15 15 -8 40 -15 54 -15 l26 0 -22 16 c-44 31 -20 34 38 4
33 -17 60 -34 60 -38 0 -5 19 -19 43 -32 46 -25 103 -70 90 -70 -4 0 7 -8 24
-17 51 -29 83 -57 83 -73 0 -13 -1 -13 -10 0 -8 13 -10 12 -10 -3 0 -11 -4
-15 -12 -11 -6 4 -8 3 -5 -4 4 -5 15 -9 24 -8 10 2 24 -3 31 -11 8 -7 18 -11
23 -8 5 4 9 1 9 -4 0 -6 4 -11 9 -11 11 0 71 -58 71 -69 0 -4 9 -16 20 -26 13
-12 18 -25 14 -38 -4 -13 -2 -17 5 -13 6 4 11 2 11 -4 0 -6 4 -9 9 -5 6 3 15
-4 21 -15 15 -28 24 -25 46 15 10 19 26 35 36 35 24 0 33 -37 13 -56 -17 -18
-15 -61 7 -122 10 -27 17 -33 38 -30 36 3 37 -15 1 -27 -17 -5 -32 -16 -32
-25 -4 -40 4 -115 12 -118 5 -2 5 -11 -1 -21 -5 -10 -6 -21 -2 -25 3 -4 0 -11
-8 -16 -10 -6 -11 -12 -3 -22 6 -7 9 -33 8 -58 -7 -98 -14 -176 -20 -205 -9
-42 -97 -216 -113 -222 -7 -3 -11 -12 -8 -20 3 -8 1 -11 -4 -8 -6 3 -13 -1
-16 -9 -3 -9 -12 -16 -20 -16 -8 0 -14 -4 -14 -10 0 -5 7 -10 15 -10 8 0 15
-2 15 -4 0 -2 3 -11 6 -19 5 -15 -12 -25 -56 -33 -14 -3 -36 -7 -50 -9 -95
-18 -97 -18 -120 6 -13 13 -20 18 -16 12 4 -8 1 -13 -8 -13 -8 0 -18 -10 -21
-21 -5 -14 -10 -18 -14 -10 -6 9 -11 8 -20 -3 -7 -8 -9 -21 -5 -28 6 -11 5
-11 -8 0 -12 10 -21 10 -42 1 -15 -7 -25 -18 -22 -25 3 -8 0 -11 -10 -7 -10 4
-14 -3 -15 -23 -1 -19 -3 -22 -6 -11 -5 18 -5 18 -20 0 -8 -10 -11 -12 -7 -4
5 9 3 12 -4 7 -7 -4 -12 -14 -12 -22 0 -8 -6 -14 -14 -14 -10 0 -12 -7 -9 -22
3 -13 3 -20 -2 -16 -4 4 -14 1 -22 -7 -16 -17 -37 -20 -28 -5 7 12 4 12 -99
11 -46 0 -85 4 -93 11 -10 8 -17 7 -28 -8 -9 -12 -14 -14 -15 -6 0 7 -4 11 -8
8 -5 -3 -9 1 -9 9 0 8 7 15 14 15 24 0 10 35 -15 38 -15 2 -28 15 -37 35 -9
21 -29 40 -59 56 -25 13 -46 28 -46 33 0 5 -5 6 -10 3 -6 -3 -13 0 -16 8 -5
15 -44 31 -44 18 0 -3 10 -15 22 -25 l21 -19 -24 -12 c-13 -7 -27 -11 -31 -9
-4 3 -14 -6 -23 -19 -13 -20 -22 -23 -69 -21 -30 1 -63 5 -75 9 -11 3 -43 -2
-71 -12 -40 -14 -50 -22 -50 -40 0 -15 -6 -23 -17 -24 -10 -1 -29 -2 -43 -4
-61 -6 -75 -7 -80 -5 -13 5 -47 12 -62 13 -10 1 -18 5 -18 9 0 4 -8 6 -17 6
-20 -2 -133 70 -133 84 0 5 -4 7 -9 4 -10 -7 -37 52 -27 61 3 3 32 -14 64 -40
88 -69 132 -89 189 -85 l48 3 -49 23 c-95 44 -204 137 -184 157 2 2 33 -19 68
-46 86 -67 110 -78 164 -81 55 -2 90 23 83 59 -2 12 1 24 6 26 6 2 -4 9 -23
17 -18 7 -44 24 -58 37 -14 13 -29 23 -34 23 -5 0 -7 4 -3 9 3 6 -4 15 -15 21
-11 6 -23 23 -26 38 -4 15 -11 32 -15 38 -8 10 -17 44 -18 72 -1 7 -15 26 -32
41 -27 26 -31 36 -34 92 -2 39 1 69 8 78 8 10 9 13 1 8 -18 -10 -25 29 -25
123 2 145 12 197 58 300 58 127 190 281 276 324 18 9 28 16 23 16 -6 0 12 11
40 24 136 65 231 99 279 97 11 0 23 5 27 12 6 9 8 9 8 0 0 -6 9 -9 20 -6 47
12 1 23 -101 23 -97 0 -119 -3 -187 -29 -42 -16 -86 -32 -97 -34 -11 -3 -31
-9 -45 -13 -22 -6 -23 -5 -11 10 12 15 12 16 -5 10 -10 -4 -24 -11 -31 -16 -7
-5 -24 -11 -38 -13 -14 -1 -43 -16 -63 -32 -42 -34 -108 -70 -97 -54 3 6 30
26 58 44 48 31 106 85 67 62 -8 -5 -29 -19 -46 -32 -38 -28 -53 -30 -29 -3 27
30 3 24 -26 -6 -14 -15 -31 -23 -41 -21 -11 3 -18 0 -18 -8 0 -7 -7 -15 -15
-19 -8 -3 -15 -1 -15 5 0 16 113 138 122 133 4 -3 8 1 8 9 0 13 47 42 63 39 4
-1 7 4 7 11 0 15 74 61 200 122 41 20 149 55 168 54 9 0 -5 -9 -33 -20 -55
-21 -23 -17 64 8 35 10 49 18 41 23 -8 5 10 11 46 15 32 4 63 8 68 9 29 7 61
4 74 -6z m-799 -11 c-2 -1 -24 -17 -49 -35 l-45 -33 45 40 c24 22 46 38 49 36
2 -3 2 -6 0 -8z m1791 -74 c0 -8 -38 17 -51 33 -9 11 -2 9 19 -6 17 -13 32
-25 32 -27z m-126 6 c49 -38 157 -133 182 -160 91 -99 73 -98 -26 2 -63 64
-136 130 -162 148 -27 17 -48 34 -48 37 0 5 36 -13 54 -27z m-1827 -65 c-38
-36 -71 -63 -73 -61 -5 5 126 127 136 127 3 0 -26 -30 -63 -66z m173 34 c0 -6
-6 -5 -15 2 -8 7 -15 14 -15 16 0 2 7 1 15 -2 8 -4 15 -11 15 -16z m1875 -63
c35 -36 126 -143 140 -166 6 -8 -6 3 -25 25 -19 23 -73 81 -120 131 -76 80
-73 87 5 10z m-725 -7 c0 -6 -6 -5 -15 2 -8 7 -15 14 -15 16 0 2 7 1 15 -2 8
-4 15 -11 15 -16z m-1570 -68 c-22 -32 -30 -37 -30 -20 0 11 36 50 46 50 3 0
-4 -13 -16 -30z m50 26 c0 -2 -8 -10 -17 -17 -16 -13 -17 -12 -4 4 13 16 21
21 21 13z m120 1 c0 -2 -15 -16 -32 -33 l-33 -29 29 33 c28 30 36 37 36 29z
m-244 -73 c-3 -9 -6 -20 -6 -25 0 -5 -4 -9 -10 -9 -11 0 -14 33 -3 43 12 13
25 7 19 -9z m2277 -29 c-8 -25 -19 -45 -25 -45 -5 0 -6 5 -3 11 10 15 -24 49
-49 49 -12 0 -16 4 -10 9 11 11 39 18 76 20 l27 1 -16 -45z m-2115 6 c-13 -15
-25 -27 -27 -25 -4 4 39 54 47 54 2 0 -7 -13 -20 -29z m-145 -6 c-3 -9 -8 -14
-10 -11 -3 3 -2 9 2 15 9 16 15 13 8 -4z m2165 -17 c20 -17 14 -26 -18 -24
-17 1 -41 13 -53 25 l-22 23 40 -7 c22 -4 46 -11 53 -17z m-1848 -3 c7 -8 19
-15 26 -15 8 0 14 -2 14 -4 0 -2 3 -11 6 -20 4 -10 1 -16 -7 -16 -7 0 -21 -7
-31 -17 -23 -21 -26 -17 -34 40 -7 49 3 60 26 32z m-365 -35 c-7 -55 -25 -65
-43 -25 -10 21 -9 28 9 46 25 25 39 17 34 -21z m29 21 c3 -5 -1 -11 -9 -14 -9
-4 -12 -1 -8 9 6 16 10 17 17 5z m2140 -31 c5 -5 7 -12 5 -15 -7 -7 -89 35
-89 46 0 10 69 -16 84 -31z m216 35 c0 -3 -12 -17 -27 -30 -26 -22 -27 -25
-11 -41 15 -16 20 -16 45 -4 15 8 31 16 36 18 4 2 7 0 7 -6 0 -5 -16 -17 -34
-27 -34 -19 -36 -19 -55 0 -27 24 -27 52 2 76 22 18 37 24 37 14z m-2244 -33
c-17 -16 -18 -16 -5 5 7 12 15 20 18 17 3 -2 -3 -12 -13 -22z m3056 1 c7 2 19
-2 26 -9 7 -8 10 -14 7 -14 -10 0 -20 -3 -41 -10 -11 -4 -28 -4 -37 1 -12 7
-17 6 -17 -2 0 -8 -4 -9 -13 -1 -7 7 -30 10 -50 9 -21 -2 -35 1 -34 7 3 16 41
29 45 17 5 -16 48 -13 62 4 10 12 16 12 26 4 8 -6 19 -9 26 -6z m-172 -3 c0
-5 -8 -10 -17 -10 -15 0 -16 2 -3 10 19 12 20 12 20 0z m-2732 -86 c29 -44 19
-60 -13 -20 l-23 29 -13 -24 c-7 -13 -14 -19 -16 -12 -4 12 25 63 36 63 3 0
16 -16 29 -36z m2197 -25 c9 -16 11 -29 6 -29 -5 0 -11 6 -13 12 -4 10 -11 9
-34 -2 -16 -8 -32 -16 -36 -18 -5 -2 -8 1 -8 6 0 5 14 15 30 22 24 10 29 17
24 33 -9 29 13 12 31 -24z m278 14 c-3 -7 -9 -10 -14 -7 -14 8 -11 21 5 21 8
0 12 -6 9 -14z m78 -15 c8 -14 8 -23 0 -31 -7 -7 -13 -2 -21 18 -6 15 -13 32
-16 36 -3 5 2 6 11 3 8 -4 20 -15 26 -26z m295 13 c11 9 14 9 14 -1 0 -10 3
-10 15 0 11 9 15 9 15 1 0 -6 -10 -16 -22 -21 -13 -5 -18 -9 -11 -9 6 -1 19
-8 27 -17 9 -8 16 -11 16 -5 0 6 10 11 22 11 21 0 21 0 2 -14 -10 -8 -16 -18
-11 -22 9 -9 -22 -44 -40 -44 -7 0 -13 -7 -13 -15 0 -8 -9 -19 -19 -25 -27
-14 -44 -13 -34 3 12 20 12 37 0 34 -7 -1 -13 5 -13 13 -1 8 -2 19 -3 23 -2
12 -31 -19 -31 -33 0 -6 -4 -8 -10 -5 -15 9 -12 44 5 61 8 9 19 12 25 9 5 -3
10 -4 10 -1 0 3 -12 12 -27 20 l-28 15 32 7 c18 3 30 11 27 16 -4 6 3 5 15 -2
17 -9 26 -9 37 1z m-172 -41 c5 0 7 -2 4 -5 -10 -10 -58 15 -58 30 0 13 4 12
22 -5 12 -11 26 -20 32 -20z m9 25 c-3 -9 -8 -14 -10 -11 -3 3 -2 9 2 15 9 16
15 13 8 -4z m387 5 c0 -5 -5 -10 -11 -10 -5 0 -7 5 -4 10 3 6 8 10 11 10 2 0
4 -4 4 -10z m40 -1 c0 -5 8 -6 18 -2 9 3 14 3 10 -2 -12 -13 -58 -14 -58 -1 0
7 7 13 15 13 8 0 15 -4 15 -8z m-360 -39 c0 -5 -4 -10 -10 -10 -5 0 -10 5 -10
10 0 6 5 10 10 10 6 0 10 -4 10 -10z m-3109 -33 c-10 -9 -11 -8 -5 6 3 10 9
15 12 12 3 -3 0 -11 -7 -18z m2872 3 c3 -11 1 -20 -4 -20 -5 0 -9 2 -9 4 0 2
-3 11 -6 20 -3 9 -2 16 4 16 5 0 12 -9 15 -20z m-2555 -37 c5 -33 -22 -47 -58
-32 -31 14 -40 45 -19 66 16 16 73 -10 77 -34z m2294 1 c23 -51 -38 -87 -77
-44 -15 17 -16 24 -7 45 16 36 68 35 84 -1z m469 -7 c-10 -9 -11 -8 -5 6 3 10
9 15 12 12 3 -3 0 -11 -7 -18z m259 -17 c0 -5 -5 -10 -11 -10 -5 0 -7 5 -4 10
3 6 8 10 11 10 2 0 4 -4 4 -10z m-350 -20 c0 -5 -4 -10 -10 -10 -5 0 -10 5
-10 10 0 6 5 10 10 10 6 0 10 -4 10 -10z m-600 -60 c-22 -42 -41 -57 -60 -45
-7 5 0 14 20 26 17 11 36 34 42 51 6 18 13 27 15 21 2 -6 -5 -30 -17 -53z
m-39 27 c-10 -9 -11 -8 -5 6 3 10 9 15 12 12 3 -3 0 -11 -7 -18z m803 -13 c3
-8 2 -12 -4 -9 -6 3 -10 10 -10 16 0 14 7 11 14 -7z m-2913 -4 c21 -12 26 -55
7 -66 -6 -4 -13 -3 -15 3 -2 6 -12 9 -22 6 -26 -7 -45 21 -31 46 12 23 31 26
61 11z m2409 1 c0 -4 -9 -20 -20 -34 l-21 -26 36 -7 c42 -7 45 -21 8 -35 -36
-14 -67 -6 -33 9 l25 10 -33 8 -33 7 23 25 23 25 -27 -7 c-39 -9 -35 9 5 22
42 13 47 14 47 3z m606 -118 c-11 -11 -17 4 -9 23 7 18 8 18 11 1 2 -10 1 -21
-2 -24z m-301 17 c3 -5 1 -10 -4 -10 -6 0 -11 5 -11 10 0 6 2 10 4 10 3 0 8
-4 11 -10z m-2766 -40 c40 -34 37 -51 -3 -19 -23 18 -30 20 -37 8 -5 -8 -9
-18 -9 -23 0 -5 -3 -7 -6 -3 -7 7 5 67 14 67 4 -1 22 -14 41 -30z m2861 -5 c0
-8 -2 -15 -4 -15 -2 0 -6 7 -10 15 -3 8 -1 15 4 15 6 0 10 -7 10 -15z m-387
-11 c26 -9 47 -19 47 -22 0 -8 -66 -62 -76 -62 -3 0 -2 6 4 13 14 16 3 67 -14
67 -8 0 -14 5 -14 10 0 13 -2 13 53 -6z m-3828 -25 c-9 -13 -45 -11 -45 2 0 6
7 9 15 5 8 -3 15 -1 15 5 0 6 5 7 10 4 6 -4 8 -11 5 -16z m1325 -96 c12 -25
14 -26 18 -8 2 11 8 24 13 30 13 13 11 -36 -1 -55 -9 -13 -14 -11 -35 13 -13
15 -27 27 -31 27 -3 0 -3 -12 0 -27 6 -26 5 -27 -8 -9 -11 14 -12 24 -5 37 14
27 34 23 49 -8z m2579 -38 c0 -29 -1 -29 -10 -7 -8 21 -13 23 -50 17 -29 -5
-40 -4 -35 4 4 6 23 11 42 11 28 0 34 4 35 23 0 21 1 21 9 2 5 -11 9 -33 9
-50z m-3829 -47 c0 -12 -13 -9 -32 6 -26 19 -22 26 7 13 14 -7 25 -15 25 -19z
m3835 -23 c-23 -8 -85 -10 -85 -3 0 4 21 8 48 7 26 0 43 -2 37 -4z m-2577 -37
c19 -19 14 -45 -10 -62 -21 -15 -24 -14 -42 3 -18 19 -18 21 -2 45 18 28 35
33 54 14z m2577 -73 c0 -16 -6 -30 -13 -33 -11 -3 -11 0 -1 16 25 40 -21 73
-52 36 -10 -12 -10 -20 -1 -35 16 -26 15 -34 -3 -19 -22 18 -18 57 7 74 30 21
63 0 63 -39z m-2594 -69 c-39 -40 -39 -50 -1 -42 17 3 30 2 30 -3 0 -8 -81
-23 -89 -16 -2 2 11 23 29 45 l33 42 -29 -2 c-49 -3 -52 3 -4 9 62 9 67 4 31
-33z m-1034 2 c-3 -8 -6 -5 -6 6 -1 11 2 17 5 13 3 -3 4 -12 1 -19z m1448 -59
c11 -17 -1 -21 -15 -4 -8 9 -8 15 -2 15 6 0 14 -5 17 -11z m2314 -116 c0 -5
-4 -17 -9 -28 -8 -18 -9 -17 -9 8 -1 15 4 27 9 27 6 0 10 -3 9 -7z m-3647 -72
c7 11 8 9 4 -5 -4 -10 -1 -25 5 -32 9 -11 9 -14 0 -14 -10 0 -32 42 -30 58 0
4 3 1 6 -7 5 -11 7 -11 15 0z m3172 -131 c-24 -49 -53 -65 -69 -39 -5 7 -13 5
-25 -6 -20 -18 -116 -29 -125 -15 -3 5 21 23 55 40 33 17 60 27 60 23 0 -5 5
-1 10 7 7 12 60 30 112 39 4 0 -4 -21 -18 -49z m-606 -125 c-3 -3 -9 2 -12 12
-6 14 -5 15 5 6 7 -7 10 -15 7 -18z m797 -33 c-1 -2 -19 5 -39 16 -19 11 -33
22 -30 25 4 3 21 -4 39 -16 19 -12 32 -23 30 -25z m-3445 18 c0 -5 -5 -10 -11
-10 -5 0 -7 5 -4 10 3 6 8 10 11 10 2 0 4 -4 4 -10z m2840 -20 c-8 -5 -19 -10
-25 -10 -5 0 -3 5 5 10 8 5 20 10 25 10 6 0 3 -5 -5 -10z m-836 -18 c66 -24
76 -48 15 -37 -24 5 -71 9 -103 10 -39 1 -61 6 -64 15 -11 33 73 40 152 12z
m-802 -42 c7 -11 18 -20 25 -20 7 0 13 -4 13 -10 0 -5 -7 -10 -15 -10 -8 0
-15 -4 -15 -10 0 -19 -39 -10 -64 15 -15 15 -20 25 -12 25 8 0 16 7 20 15 8
21 34 19 48 -5z m1658 10 c0 -15 -80 -57 -145 -75 -33 -9 -75 -23 -93 -31 -41
-18 -63 -18 -56 -1 5 15 175 95 226 107 47 11 68 11 68 0z m-845 -38 c76 -27
67 -48 -19 -44 -85 4 -111 15 -96 42 13 25 49 26 115 2z m1270 -65 c3 -12 1
-34 -4 -47 -9 -22 -10 -20 -5 13 7 41 -4 48 -24 16 -7 -12 -16 -19 -19 -16 -6
7 29 56 39 57 4 0 10 -10 13 -23z m-2004 3 c10 -6 19 -21 18 -33 l0 -22 -11
23 c-11 22 -28 28 -41 15 -4 -3 1 -15 10 -26 17 -18 17 -19 -2 -33 -18 -14
-22 -13 -43 12 -13 14 -20 29 -17 32 3 3 12 -4 21 -16 22 -32 34 -27 21 8 -10
25 -9 33 3 40 19 12 17 12 41 0z m2045 -55 c-3 -8 -10 -15 -15 -15 -5 0 -4 11
2 25 12 25 23 16 13 -10z m-1962 -41 c16 -15 21 -34 10 -34 -3 0 -14 10 -24
23 -17 20 -19 21 -26 4 -4 -12 0 -23 12 -32 19 -13 18 -14 -1 -29 -18 -13 -22
-13 -42 6 -13 12 -21 24 -18 26 3 3 13 -2 23 -11 21 -19 42 -23 24 -5 -13 13
-16 50 -5 61 11 12 31 8 47 -9z m738 0 c66 -17 128 -60 120 -83 -3 -8 0 -11 7
-7 6 4 11 3 11 -3 0 -6 12 -22 28 -37 17 -16 21 -24 10 -21 -12 4 -15 2 -11
-9 3 -8 12 -13 19 -10 9 3 14 -2 14 -14 0 -10 8 -23 17 -28 14 -8 12 -11 -13
-16 -33 -7 -225 10 -233 22 -4 4 -24 8 -47 9 -45 2 -200 57 -224 80 -16 15
-12 15 38 -3 9 -4 26 -7 37 -9 102 -10 142 -20 158 -38 14 -17 17 -18 17 -4 0
10 -4 17 -10 17 -5 0 -10 6 -10 14 0 7 -7 19 -15 26 -8 6 -26 32 -40 57 -41
74 -4 90 127 57z m565 -31 c2 -6 -8 -18 -24 -26 -15 -8 -37 -24 -47 -36 -10
-11 -34 -23 -53 -27 -19 -4 -32 -9 -29 -12 3 -3 -4 -11 -17 -17 -12 -7 -44
-25 -71 -39 -30 -16 -55 -24 -65 -20 -9 4 -20 6 -24 5 -4 0 -10 7 -14 16 -3
10 -15 30 -25 45 -14 21 -16 32 -9 46 10 18 49 29 254 69 57 12 120 10 124 -4z
m470 -28 c-7 -13 -14 -20 -15 -14 -5 14 6 39 17 39 5 0 4 -11 -2 -25z m43 11
c0 -7 -7 -27 -15 -42 -13 -26 -15 -27 -15 -7 0 12 5 25 11 28 6 4 8 13 5 21
-3 8 -1 14 4 14 6 0 10 -6 10 -14z m15 -54 c-17 -15 -18 -15 -6 0 7 9 9 23 5
30 -6 10 -4 11 7 0 11 -10 10 -15 -6 -30z m-535 -51 c-8 -5 -26 -12 -40 -15
l-25 -7 25 15 c14 9 32 15 40 15 13 0 13 -1 0 -8z m-1315 -149 c-3 -3 -11 0
-18 7 -9 10 -8 11 6 5 10 -3 15 -9 12 -12z m45 -34 c0 -6 -6 -5 -15 2 -8 7
-15 14 -15 16 0 2 7 1 15 -2 8 -4 15 -11 15 -16z m460 18 c0 -3 -4 -8 -10 -11
-5 -3 -10 -1 -10 4 0 6 5 11 10 11 6 0 10 -2 10 -4z m34 -31 c-4 -8 -8 -15
-10 -15 -2 0 -4 7 -4 15 0 8 4 15 10 15 5 0 7 -7 4 -15z m46 -2 c0 -5 -5 -15
-10 -23 -7 -12 -9 -10 -7 8 1 19 17 33 17 15z m50 -10 c0 -5 -5 -15 -10 -23
-8 -12 -10 -11 -10 8 0 12 5 22 10 22 6 0 10 -3 10 -7z m36 -19 c-3 -9 -6 -23
-6 -33 0 -10 -9 -17 -22 -18 -20 -2 -21 -1 -5 8 9 6 17 21 17 34 0 14 5 25 11
25 6 0 8 -7 5 -16z m-126 -14 c20 -6 21 -8 5 -8 -11 0 -31 4 -45 8 -20 6 -21
8 -5 8 11 0 31 -4 45 -8z m284 4 c9 -3 16 -11 16 -16 0 -7 -5 -6 -14 1 -17 14
-46 4 -47 -18 0 -10 -2 -12 -6 -3 -5 13 13 42 27 42 5 0 15 -3 24 -6z m218
-46 c2 -21 0 -38 -4 -38 -4 0 -8 21 -7 48 1 52 6 48 11 -10z m-78 34 c2 -4 -7
-8 -21 -7 -29 0 -43 -21 -18 -27 13 -3 13 -5 -3 -14 -15 -10 -18 -8 -16 15 0
14 2 29 2 34 3 9 49 9 56 -1z m205 4 c-12 -10 -60 -16 -54 -6 3 5 18 10 32 10
15 0 24 -2 22 -4z m126 -6 c-3 -5 -16 -10 -28 -10 -18 0 -19 2 -7 10 20 13 43
13 35 0z m-592 -20 c-3 -11 -13 -20 -22 -19 -10 0 -11 2 -3 6 6 2 12 11 12 19
0 8 4 14 9 14 5 0 7 -9 4 -20z m-528 0 c3 -5 1 -10 -4 -10 -6 0 -11 5 -11 10
0 6 2 10 4 10 3 0 8 -4 11 -10z m1004 -4 c-12 -10 -60 -16 -54 -6 3 5 18 10
32 10 15 0 24 -2 22 -4z m-339 -16 c0 -5 -9 -9 -20 -7 -31 5 -36 17 -7 17 15
0 27 -4 27 -10z m-20 -34 c-4 -4 -21 -4 -37 2 -28 11 -28 11 9 9 21 -1 33 -6
28 -11z m140 4 c-8 -5 -22 -9 -30 -9 -10 0 -8 3 5 9 27 12 43 12 25 0z m425
-80 c-3 -5 -12 -10 -18 -10 -7 0 -6 4 3 10 19 12 23 12 15 0z"/>
<path d="M3154 3234 c3 -9 6 -27 6 -40 0 -13 6 -24 13 -24 25 0 34 16 30 48
-4 26 -10 32 -30 32 -19 0 -24 -4 -19 -16z"/>
<path d="M3318 3193 c7 -3 16 -2 19 1 4 3 -2 6 -13 5 -11 0 -14 -3 -6 -6z"/>
<path d="M3750 3196 c0 -19 31 -30 41 -14 4 6 5 16 3 20 -9 14 -44 9 -44 -6z"/>
<path d="M3300 3130 c-12 -8 -11 -10 8 -10 12 0 22 5 22 10 0 13 -11 13 -30 0z"/>
<path d="M2915 3044 c-37 -19 -56 -37 -35 -32 8 2 17 6 20 9 3 3 19 13 35 22
17 9 26 16 20 17 -5 0 -23 -7 -40 -16z"/>
<path d="M3389 2920 c18 -16 27 -18 38 -9 17 14 16 15 -27 22 l-35 7 24 -20z"/>
<path d="M2965 2886 c-27 -14 -45 -25 -40 -25 14 0 112 47 100 48 -5 0 -32
-10 -60 -23z"/>
<path d="M2590 2815 c-11 -13 -10 -14 4 -9 9 3 16 10 16 15 0 13 -6 11 -20 -6z"/>
<path d="M4302 2841 c-10 -6 -10 -10 1 -20 12 -9 16 -7 20 9 5 21 0 25 -21 11z"/>
<path d="M2380 2756 c0 -9 5 -16 10 -16 6 0 10 4 10 9 0 6 -4 13 -10 16 -5 3
-10 -1 -10 -9z"/>
<path d="M5180 2740 c0 -5 5 -10 11 -10 5 0 7 5 4 10 -3 6 -8 10 -11 10 -2 0
-4 -4 -4 -10z"/>
<path d="M2205 2549 c-10 -15 3 -25 16 -12 7 7 7 13 1 17 -6 3 -14 1 -17 -5z"/>
<path d="M2244 2536 c-8 -22 3 -33 18 -18 9 9 9 15 0 24 -9 9 -13 7 -18 -6z"/>
<path d="M4510 2535 c-26 -31 18 -71 47 -43 12 12 13 20 4 37 -14 25 -34 27
-51 6z"/>
<path d="M2150 2415 c0 -8 7 -15 15 -15 8 0 15 7 15 15 0 8 -7 15 -15 15 -8 0
-15 -7 -15 -15z"/>
<path d="M2196 2411 c-4 -7 -5 -15 -2 -18 9 -9 19 4 14 18 -4 11 -6 11 -12 0z"/>
<path d="M4616 2256 c3 -8 12 -12 20 -9 17 6 9 23 -11 23 -8 0 -12 -6 -9 -14z"/>
<path d="M2083 1994 c-7 -18 11 -39 26 -30 17 11 13 46 -4 46 -9 0 -18 -7 -22
-16z"/>
<path d="M2275 1270 c3 -5 10 -10 16 -10 5 0 9 5 9 10 0 6 -7 10 -16 10 -8 0
-12 -4 -9 -10z"/>
<path d="M2275 1240 c3 -5 13 -10 21 -10 8 0 14 5 14 10 0 6 -9 10 -21 10 -11
0 -17 -4 -14 -10z"/>
<path d="M593 3172 c-8 -5 -7 -11 3 -19 15 -14 27 -3 16 14 -4 7 -13 9 -19 5z"/>
<path d="M5704 3171 c3 -5 -9 -12 -28 -15 -39 -7 -49 -24 -51 -81 -2 -55 16
-71 38 -34 9 16 12 29 7 29 -4 0 -6 9 -3 20 3 12 8 18 11 15 3 -2 12 5 20 16
l15 22 17 -22 c15 -20 18 -21 29 -7 11 13 11 19 1 31 -7 8 -16 13 -20 10 -4
-3 -10 2 -14 10 -3 8 -10 15 -16 15 -6 0 -9 -4 -6 -9z"/>
<path d="M2280 3100 c-13 -8 -12 -10 3 -10 9 0 17 5 17 10 0 12 -1 12 -20 0z"/>
<path d="M2320 3095 c-20 -24 -6 -28 15 -5 10 11 13 20 8 20 -6 0 -16 -7 -23
-15z"/>
<path d="M2250 3065 c0 -8 -10 -19 -23 -24 -30 -12 -53 -38 -32 -38 21 0 79
63 66 71 -6 4 -11 0 -11 -9z"/>
<path d="M2213 2993 c-15 -5 -17 -23 -4 -23 5 0 11 7 15 15 3 8 4 15 3 14 -1
0 -8 -3 -14 -6z"/>
<path d="M560 2927 c-24 -12 -25 -18 -26 -97 -1 -47 -3 -92 -4 -100 -2 -8 -2
-33 -2 -54 l2 -39 25 27 c14 15 25 21 25 14 0 -21 33 33 63 102 33 77 34 110
6 134 -28 24 -58 28 -89 13z"/>
<path d="M5734 2887 c-8 -21 -3 -29 13 -19 8 5 9 13 3 22 -7 12 -10 12 -16 -3z"/>
<path d="M5691 2693 c-14 -50 -14 -53 7 -53 34 0 42 13 31 53 -13 47 -25 47
-38 0z"/>
<path d="M5385 2520 c-3 -6 1 -7 9 -4 18 7 21 14 7 14 -6 0 -13 -4 -16 -10z"/>
<path d="M5350 2511 c0 -6 4 -13 10 -16 6 -3 7 1 4 9 -7 18 -14 21 -14 7z"/>
<path d="M532 2450 c0 -14 2 -19 5 -12 2 6 2 18 0 25 -3 6 -5 1 -5 -13z"/>
<path d="M5480 2417 c0 -8 7 -17 15 -21 8 -3 15 -2 15 3 0 5 -7 14 -15 21 -12
10 -15 10 -15 -3z"/>
<path d="M530 2402 c0 -8 6 -12 15 -8 9 3 15 0 15 -9 0 -9 -6 -12 -15 -9 -8 4
-15 2 -15 -4 0 -12 24 -22 48 -21 11 0 12 2 5 6 -7 2 -13 11 -13 19 0 8 6 11
15 8 8 -4 15 -1 15 5 0 6 -7 11 -15 11 -8 0 -15 4 -15 8 0 4 -9 8 -20 8 -11 0
-20 -7 -20 -14z"/>
<path d="M5074 2385 c-12 -9 -14 -14 -6 -15 7 0 20 7 28 15 20 19 4 20 -22 0z"/>
<path d="M5127 2381 c-3 -12 -1 -21 3 -21 14 0 19 15 11 29 -6 9 -10 7 -14 -8z"/>
<path d="M590 2334 c0 -3 7 -12 15 -20 16 -17 18 -14 9 10 -6 15 -24 23 -24
10z"/>
<path d="M555 2320 c3 -5 8 -10 11 -10 2 0 4 5 4 10 0 6 -5 10 -11 10 -5 0 -7
-4 -4 -10z"/>
<path d="M560 2280 c-9 -6 -10 -10 -3 -10 6 0 15 5 18 10 8 12 4 12 -15 0z"/>
<path d="M5235 2280 c3 -5 8 -10 11 -10 2 0 4 5 4 10 0 6 -5 10 -11 10 -5 0
-7 -4 -4 -10z"/>
<path d="M5349 2273 c-13 -16 -12 -17 4 -4 16 13 21 21 13 21 -2 0 -10 -8 -17
-17z"/>
<path d="M4940 2269 c0 -5 5 -7 10 -4 6 3 10 8 10 11 0 2 -4 4 -10 4 -5 0 -10
-5 -10 -11z"/>
<path d="M4998 2253 c7 -3 16 -2 19 1 4 3 -2 6 -13 5 -11 0 -14 -3 -6 -6z"/>
<path d="M5116 2243 c-6 -14 -5 -15 5 -6 7 7 10 15 7 18 -3 3 -9 -2 -12 -12z"/>
<path d="M5192 2233 c-6 -10 -14 -17 -19 -16 -4 0 -7 -3 -6 -8 2 -5 -9 -4 -23
1 -19 8 -29 6 -40 -4 -8 -8 -10 -17 -5 -20 5 -3 12 1 15 10 3 8 11 12 17 8 8
-5 8 -9 -1 -14 -9 -6 -10 -12 -1 -26 6 -11 11 -13 11 -6 0 6 9 12 20 12 13 0
20 7 20 19 0 14 6 19 18 16 33 -6 45 9 23 29 -18 17 -20 17 -29 -1z"/>
<path d="M5240 2240 c0 -5 5 -10 10 -10 6 0 10 5 10 10 0 6 -4 10 -10 10 -5 0
-10 -4 -10 -10z"/>
<path d="M5145 2230 c3 -5 8 -10 11 -10 2 0 4 5 4 10 0 6 -5 10 -11 10 -5 0
-7 -4 -4 -10z"/>
<path d="M738 2160 c-3 -16 -1 -30 4 -30 4 0 8 14 8 30 0 17 -2 30 -4 30 -2 0
-6 -13 -8 -30z"/>
<path d="M5100 2120 c0 -5 5 -10 11 -10 5 0 7 5 4 10 -3 6 -8 10 -11 10 -2 0
-4 -4 -4 -10z"/>
<path d="M5451 2127 c2 -1 12 -9 22 -16 14 -12 17 -11 17 3 0 10 -8 16 -22 16
-12 0 -19 -1 -17 -3z"/>
<path d="M675 2100 c3 -5 11 -10 16 -10 6 0 7 5 4 10 -3 6 -11 10 -16 10 -6 0
-7 -4 -4 -10z"/>
<path d="M5067 2068 c3 -18 9 -34 14 -36 12 -5 -2 -41 -20 -45 -9 -3 -6 -5 9
-6 22 -1 25 3 26 33 0 19 -3 33 -8 30 -7 -4 -13 26 -9 49 0 4 -3 7 -9 7 -5 0
-7 -14 -3 -32z"/>
<path d="M550 2080 c0 -5 5 -10 10 -10 6 0 10 5 10 10 0 6 -4 10 -10 10 -5 0
-10 -4 -10 -10z"/>
<path d="M5015 2073 c-9 -8 -13 -18 -9 -22 4 -3 9 0 11 7 7 18 22 14 18 -5 -1
-10 -7 -17 -11 -16 -5 1 -10 -9 -10 -21 -1 -13 4 -23 11 -23 7 0 11 6 8 14 -3
8 0 11 9 8 10 -4 14 3 14 29 0 40 -18 53 -41 29z"/>
<path d="M5480 2079 c0 -5 5 -7 10 -4 6 3 10 8 10 11 0 2 -4 4 -10 4 -5 0 -10
-5 -10 -11z"/>
<path d="M4990 1976 c0 -4 7 -18 16 -31 14 -22 14 -27 0 -55 -10 -21 -12 -39
-7 -53 6 -14 4 -34 -4 -52 -7 -17 -10 -45 -7 -62 3 -20 -1 -39 -9 -49 -7 -9
-12 -31 -11 -50 2 -19 -4 -45 -13 -57 -8 -12 -15 -34 -15 -50 0 -15 -6 -38
-14 -50 -8 -12 -17 -38 -20 -58 -4 -21 -13 -42 -21 -49 -8 -7 -17 -27 -21 -45
-3 -19 -15 -41 -25 -51 -10 -9 -19 -25 -19 -35 0 -10 -11 -30 -24 -46 -13 -15
-31 -45 -39 -66 -9 -20 -23 -40 -32 -43 -49 -19 23 -23 368 -21 279 1 387 5
402 14 11 7 14 13 8 13 -21 0 -15 48 8 63 13 9 16 17 10 21 -6 4 -9 22 -6 41
3 24 -1 35 -12 39 -10 4 -14 15 -11 31 3 13 1 26 -5 28 -13 4 -16 100 -2 109
6 5 3 8 -7 8 -10 0 -18 5 -18 11 0 5 -5 7 -10 4 -6 -4 -8 -11 -5 -16 9 -14 -5
-11 -21 5 -18 19 -18 32 0 17 11 -9 15 -8 20 5 11 28 7 44 -11 45 -14 0 -13 2
5 9 12 5 22 17 22 27 0 14 -2 15 -9 4 -7 -11 -10 -10 -14 5 -4 18 -5 18 -6 0
-1 -14 -6 -17 -25 -12 -20 5 -23 3 -19 -18 3 -16 -1 -25 -13 -30 -11 -4 -20
-2 -22 3 -7 20 -22 11 -23 -11 -1 -19 -2 -19 -6 -5 -3 11 -11 16 -19 13 -9 -3
-12 -1 -9 4 3 6 1 10 -5 10 -6 0 -10 6 -9 13 5 37 -18 50 -84 47 -21 -1 -37 2
-36 7 4 21 -2 33 -16 33 -8 0 -15 5 -15 10 0 6 -10 10 -22 10 -19 0 -23 6 -24
30 -1 19 4 30 12 30 16 0 33 30 27 48 -3 6 0 12 7 12 6 0 8 5 5 10 -4 6 -11 8
-16 5 -5 -4 -9 -2 -9 4 0 5 5 11 10 13 6 2 12 13 13 26 1 16 6 21 17 17 12 -5
12 -4 3 6 -10 10 -16 9 -29 -2 -16 -13 -16 -12 -5 10 8 15 9 21 2 17 -6 -4
-11 -2 -11 3 0 6 -8 11 -17 11 -15 0 -13 4 7 19 22 17 22 19 5 18 -25 -2 -28
30 -6 56 14 16 13 17 -4 11 -12 -5 -16 -4 -12 3 4 7 -2 11 -16 11 -12 0 -34 4
-49 7 -16 4 -28 4 -28 1z m75 -34 c-3 -3 -11 0 -18 7 -9 10 -8 11 6 5 10 -3
15 -9 12 -12z m55 -237 c0 -1 -7 -8 -15 -15 -13 -10 -15 -9 -15 8 0 15 5 20
15 16 8 -4 15 -7 15 -9z m-40 -15 c0 -5 -4 -10 -10 -10 -5 0 -10 5 -10 10 0 6
5 10 10 10 6 0 10 -4 10 -10z m65 -128 c-3 -3 -11 0 -18 7 -9 10 -8 11 6 5 10
-3 15 -9 12 -12z m-170 -30 c-3 -3 -11 0 -18 7 -9 10 -8 11 6 5 10 -3 15 -9
12 -12z m265 -2 c0 -13 -20 -13 -40 0 -12 8 -9 10 13 10 15 0 27 -4 27 -10z
m28 -42 c-2 -6 -10 -13 -16 -14 -9 -2 -9 -1 -1 3 8 4 7 8 -2 14 -11 7 -10 9 4
9 10 0 17 -5 15 -12z m-41 -30 c-3 -7 -5 -2 -5 12 0 14 2 19 5 13 2 -7 2 -19
0 -25z m58 -8 c3 -5 -1 -10 -10 -10 -9 0 -13 5 -10 10 3 6 8 10 10 10 2 0 7
-4 10 -10z m106 -23 c-10 -9 -11 -8 -5 6 3 10 9 15 12 12 3 -3 0 -11 -7 -18z
m-141 -1 c0 -2 -9 -6 -20 -9 -11 -3 -20 -1 -20 4 0 5 9 9 20 9 11 0 20 -2 20
-4z m220 -126 c0 -5 -5 -10 -11 -10 -5 0 -7 5 -4 10 3 6 8 10 11 10 2 0 4 -4
4 -10z"/>
<path d="M1790 1946 c0 -8 4 -17 9 -20 5 -4 7 3 4 14 -6 23 -13 26 -13 6z"/>
<path d="M928 1848 c5 -5 16 -8 23 -6 8 3 3 7 -10 11 -17 4 -21 3 -13 -5z"/>
<path d="M973 1847 c4 -13 47 -20 47 -8 0 5 -11 11 -25 14 -15 2 -24 0 -22 -6z"/>
<path d="M999 1808 c-2 -18 2 -52 6 -56 2 -2 12 1 22 7 17 10 17 10 1 11 -10
0 -18 7 -18 16 0 8 4 13 9 10 5 -3 11 1 15 9 4 10 -1 15 -14 15 -11 0 -21 -6
-21 -12z"/>
<path d="M971 1784 c0 -11 3 -14 6 -6 3 7 2 16 -1 19 -3 4 -6 -2 -5 -13z"/>
<path d="M5366 1792 c-2 -4 -1 -14 4 -22 7 -11 9 -9 7 8 -1 24 -3 26 -11 14z"/>
<path d="M5423 1783 c-15 -5 -17 -23 -4 -23 5 0 11 7 15 15 3 8 4 15 3 14 -1
0 -8 -3 -14 -6z"/>
<path d="M1030 1728 c0 -6 -12 -8 -26 -5 -14 2 -22 1 -17 -3 15 -15 83 -16 83
-1 0 5 -9 11 -20 14 -11 3 -20 1 -20 -5z"/>
<path d="M5148 1683 c7 -3 16 -2 19 1 4 3 -2 6 -13 5 -11 0 -14 -3 -6 -6z"/>
<path d="M5193 1662 c1 -14 5 -18 11 -12 7 7 6 14 -1 21 -9 9 -12 7 -10 -9z"/>
<path d="M1830 1637 c0 -14 4 -28 9 -32 6 -3 8 6 5 22 -7 37 -14 42 -14 10z"/>
<path d="M5114 1635 c-10 -8 -14 -15 -8 -15 6 0 17 7 24 15 16 19 9 19 -16 0z"/>
<path d="M5145 1629 c-11 -17 1 -21 15 -4 8 9 8 15 2 15 -6 0 -14 -5 -17 -11z"/>
<path d="M5205 1630 c-3 -5 -1 -10 4 -10 6 0 11 5 11 10 0 6 -2 10 -4 10 -3 0
-8 -4 -11 -10z"/>
<path d="M925 1600 c-3 -5 1 -13 10 -16 22 -9 29 1 11 15 -10 8 -16 9 -21 1z"/>
<path d="M5210 1590 c0 -5 5 -10 10 -10 6 0 10 5 10 10 0 6 -4 10 -10 10 -5 0
-10 -4 -10 -10z"/>
<path d="M990 1586 c0 -2 11 -6 25 -8 13 -3 22 -1 19 3 -5 9 -44 13 -44 5z"/>
<path d="M5180 1578 c0 -12 7 -18 23 -17 15 0 17 2 7 6 -8 3 -18 11 -22 17 -5
7 -8 4 -8 -6z"/>
<path d="M5440 1581 c0 -6 4 -13 10 -16 6 -3 7 1 4 9 -7 18 -14 21 -14 7z"/>
<path d="M5245 1570 c3 -5 8 -10 11 -10 2 0 4 5 4 10 0 6 -5 10 -11 10 -5 0
-7 -4 -4 -10z"/>
<path d="M5320 1520 c0 -5 5 -10 11 -10 5 0 7 5 4 10 -3 6 -8 10 -11 10 -2 0
-4 -4 -4 -10z"/>
<path d="M5355 1511 c-3 -5 -1 -12 5 -16 5 -3 10 1 10 9 0 18 -6 21 -15 7z"/>
<path d="M1006 1457 c3 -10 9 -15 12 -12 3 3 0 11 -7 18 -10 9 -11 8 -5 -6z"/>
<path d="M1285 810 c-13 -5 -15 -9 -7 -14 7 -4 12 -4 12 1 0 4 5 1 10 -7 7
-12 10 -12 10 -1 0 7 6 11 15 8 8 -4 17 -2 20 2 7 12 -37 19 -60 11z"/>
<path d="M1674 799 c0 -13 12 -16 68 -16 61 1 68 3 68 21 0 20 0 20 -15 0 -8
-10 -15 -14 -15 -7 0 6 -22 13 -53 15 -43 2 -53 0 -53 -13z"/>
<path d="M1200 800 c8 -5 26 -10 40 -10 20 0 22 2 10 10 -8 5 -26 10 -40 10
-20 0 -22 -2 -10 -10z"/>
<path d="M1356 793 c-6 -14 -5 -15 5 -6 7 7 10 15 7 18 -3 3 -9 -2 -12 -12z"/>
<path d="M1390 802 c0 -4 14 -7 30 -7 17 -1 30 3 30 7 0 4 -13 8 -30 8 -16 0
-30 -3 -30 -8z"/>
<path d="M1640 800 c0 -5 5 -10 10 -10 6 0 10 5 10 10 0 6 -4 10 -10 10 -5 0
-10 -4 -10 -10z"/>
<path d="M1820 793 c0 -9 24 -12 89 -10 57 1 87 -2 83 -8 -3 -5 2 -4 11 3 9 8
22 10 28 6 23 -14 59 -13 59 3 0 9 -8 14 -22 13 -13 -1 -25 -1 -28 0 -3 1 -53
3 -112 4 -81 1 -108 -2 -108 -11z"/>
<path d="M2105 790 c4 -6 11 -8 16 -5 14 9 11 15 -7 15 -8 0 -12 -5 -9 -10z"/>
<path d="M2156 792 c-2 -4 4 -9 15 -9 11 -1 17 2 14 8 -7 11 -22 12 -29 1z"/>
<path d="M2695 460 c-3 -5 -1 -10 4 -10 6 0 11 5 11 10 0 6 -2 10 -4 10 -3 0
-8 -4 -11 -10z"/>
<path d="M4030 389 c0 -5 5 -7 10 -4 6 3 10 8 10 11 0 2 -4 4 -10 4 -5 0 -10
-5 -10 -11z"/>
<path d="M3000 210 c0 -5 4 -10 9 -10 6 0 13 5 16 10 3 6 -1 10 -9 10 -9 0
-16 -4 -16 -10z"/>
<path d="M3310 212 c0 -6 -8 -13 -17 -15 -16 -4 -16 -5 -1 -6 18 -1 34 16 24
26 -3 4 -6 1 -6 -5z"/>
<path d="M3338 209 c-22 -14 -2 -21 33 -11 34 8 34 9 7 14 -15 3 -32 1 -40 -3z"/>
<path d="M2958 203 c7 -3 16 -2 19 1 4 3 -2 6 -13 5 -11 0 -14 -3 -6 -6z"/>
</g>
</svg>
